<mxfile host="app.diagrams.net" modified="2023-09-06T01:52:30.901Z" agent="Mozilla/5.0 (Macintosh; Intel Mac OS X 10_15_7) AppleWebKit/537.36 (KHTML, like Gecko) Chrome/113.0.0.0 Safari/537.36" etag="jfMpe-4Bm1T1CJOQvkFd" version="21.7.0" type="device">
  <diagram name="PÃ¡gina-1" id="n5KWdtxEeFnkF-gSVWrN">
    <mxGraphModel dx="955" dy="492" grid="1" gridSize="10" guides="1" tooltips="1" connect="1" arrows="1" fold="1" page="1" pageScale="1" pageWidth="827" pageHeight="1169" math="0" shadow="0">
      <root>
        <mxCell id="0" />
        <mxCell id="1" parent="0" />
        <mxCell id="viRfyqfNUSQ3YkpJ2DHF-5" value="BaseIdentificador&lt;br&gt;&amp;lt;&amp;lt;Abstract&amp;gt;&amp;gt;" style="swimlane;fontStyle=1;align=center;verticalAlign=top;childLayout=stackLayout;horizontal=1;startSize=40;horizontalStack=0;resizeParent=1;resizeParentMax=0;resizeLast=0;collapsible=1;marginBottom=0;whiteSpace=wrap;html=1;" vertex="1" parent="1">
          <mxGeometry x="334" y="30" width="160" height="110" as="geometry" />
        </mxCell>
        <mxCell id="viRfyqfNUSQ3YkpJ2DHF-6" value="# codigo : int" style="text;strokeColor=none;fillColor=none;align=left;verticalAlign=top;spacingLeft=4;spacingRight=4;overflow=hidden;rotatable=0;points=[[0,0.5],[1,0.5]];portConstraint=eastwest;whiteSpace=wrap;html=1;" vertex="1" parent="viRfyqfNUSQ3YkpJ2DHF-5">
          <mxGeometry y="40" width="160" height="26" as="geometry" />
        </mxCell>
        <mxCell id="viRfyqfNUSQ3YkpJ2DHF-7" value="" style="line;strokeWidth=1;fillColor=none;align=left;verticalAlign=middle;spacingTop=-1;spacingLeft=3;spacingRight=3;rotatable=0;labelPosition=right;points=[];portConstraint=eastwest;strokeColor=inherit;" vertex="1" parent="viRfyqfNUSQ3YkpJ2DHF-5">
          <mxGeometry y="66" width="160" height="8" as="geometry" />
        </mxCell>
        <mxCell id="viRfyqfNUSQ3YkpJ2DHF-8" value="+BaseIdentificador(int)" style="text;strokeColor=none;fillColor=none;align=left;verticalAlign=top;spacingLeft=4;spacingRight=4;overflow=hidden;rotatable=0;points=[[0,0.5],[1,0.5]];portConstraint=eastwest;whiteSpace=wrap;html=1;" vertex="1" parent="viRfyqfNUSQ3YkpJ2DHF-5">
          <mxGeometry y="74" width="160" height="36" as="geometry" />
        </mxCell>
        <mxCell id="viRfyqfNUSQ3YkpJ2DHF-9" value="BaseDadosComuns&lt;br&gt;&amp;lt;&amp;lt;Abstract&amp;gt;&amp;gt;" style="swimlane;fontStyle=1;align=center;verticalAlign=top;childLayout=stackLayout;horizontal=1;startSize=40;horizontalStack=0;resizeParent=1;resizeParentMax=0;resizeLast=0;collapsible=1;marginBottom=0;whiteSpace=wrap;html=1;" vertex="1" parent="1">
          <mxGeometry x="319" y="200" width="190" height="110" as="geometry" />
        </mxCell>
        <mxCell id="viRfyqfNUSQ3YkpJ2DHF-10" value="# data : LocalDate" style="text;strokeColor=none;fillColor=none;align=left;verticalAlign=top;spacingLeft=4;spacingRight=4;overflow=hidden;rotatable=0;points=[[0,0.5],[1,0.5]];portConstraint=eastwest;whiteSpace=wrap;html=1;" vertex="1" parent="viRfyqfNUSQ3YkpJ2DHF-9">
          <mxGeometry y="40" width="190" height="26" as="geometry" />
        </mxCell>
        <mxCell id="viRfyqfNUSQ3YkpJ2DHF-11" value="" style="line;strokeWidth=1;fillColor=none;align=left;verticalAlign=middle;spacingTop=-1;spacingLeft=3;spacingRight=3;rotatable=0;labelPosition=right;points=[];portConstraint=eastwest;strokeColor=inherit;" vertex="1" parent="viRfyqfNUSQ3YkpJ2DHF-9">
          <mxGeometry y="66" width="190" height="8" as="geometry" />
        </mxCell>
        <mxCell id="viRfyqfNUSQ3YkpJ2DHF-12" value="+BaseDadosComuns(int, LocalDate)" style="text;strokeColor=none;fillColor=none;align=left;verticalAlign=top;spacingLeft=4;spacingRight=4;overflow=hidden;rotatable=0;points=[[0,0.5],[1,0.5]];portConstraint=eastwest;whiteSpace=wrap;html=1;" vertex="1" parent="viRfyqfNUSQ3YkpJ2DHF-9">
          <mxGeometry y="74" width="190" height="36" as="geometry" />
        </mxCell>
        <mxCell id="viRfyqfNUSQ3YkpJ2DHF-17" value="BasePessoa&lt;br&gt;&amp;lt;&amp;lt;Abstract&amp;gt;&amp;gt;" style="swimlane;fontStyle=1;align=center;verticalAlign=top;childLayout=stackLayout;horizontal=1;startSize=40;horizontalStack=0;resizeParent=1;resizeParentMax=0;resizeLast=0;collapsible=1;marginBottom=0;whiteSpace=wrap;html=1;" vertex="1" parent="1">
          <mxGeometry x="334" y="360" width="160" height="170" as="geometry" />
        </mxCell>
        <mxCell id="viRfyqfNUSQ3YkpJ2DHF-18" value="# nome : string&lt;br&gt;# telefone : string&lt;br&gt;# email : string" style="text;strokeColor=none;fillColor=none;align=left;verticalAlign=top;spacingLeft=4;spacingRight=4;overflow=hidden;rotatable=0;points=[[0,0.5],[1,0.5]];portConstraint=eastwest;whiteSpace=wrap;html=1;" vertex="1" parent="viRfyqfNUSQ3YkpJ2DHF-17">
          <mxGeometry y="40" width="160" height="60" as="geometry" />
        </mxCell>
        <mxCell id="viRfyqfNUSQ3YkpJ2DHF-19" value="" style="line;strokeWidth=1;fillColor=none;align=left;verticalAlign=middle;spacingTop=-1;spacingLeft=3;spacingRight=3;rotatable=0;labelPosition=right;points=[];portConstraint=eastwest;strokeColor=inherit;" vertex="1" parent="viRfyqfNUSQ3YkpJ2DHF-17">
          <mxGeometry y="100" width="160" height="8" as="geometry" />
        </mxCell>
        <mxCell id="viRfyqfNUSQ3YkpJ2DHF-20" value="+BasePessoa(int, LocalDate, string, string, string)" style="text;strokeColor=none;fillColor=none;align=left;verticalAlign=top;spacingLeft=4;spacingRight=4;overflow=hidden;rotatable=0;points=[[0,0.5],[1,0.5]];portConstraint=eastwest;whiteSpace=wrap;html=1;" vertex="1" parent="viRfyqfNUSQ3YkpJ2DHF-17">
          <mxGeometry y="108" width="160" height="62" as="geometry" />
        </mxCell>
        <mxCell id="viRfyqfNUSQ3YkpJ2DHF-25" value="BaseLogin&lt;br&gt;&amp;lt;&amp;lt;Abstract&amp;gt;&amp;gt;" style="swimlane;fontStyle=1;align=center;verticalAlign=top;childLayout=stackLayout;horizontal=1;startSize=40;horizontalStack=0;resizeParent=1;resizeParentMax=0;resizeLast=0;collapsible=1;marginBottom=0;whiteSpace=wrap;html=1;" vertex="1" parent="1">
          <mxGeometry x="330" y="590" width="160" height="160" as="geometry" />
        </mxCell>
        <mxCell id="viRfyqfNUSQ3YkpJ2DHF-26" value="# usuario : string&lt;br&gt;# senha : string&lt;br&gt;" style="text;strokeColor=none;fillColor=none;align=left;verticalAlign=top;spacingLeft=4;spacingRight=4;overflow=hidden;rotatable=0;points=[[0,0.5],[1,0.5]];portConstraint=eastwest;whiteSpace=wrap;html=1;" vertex="1" parent="viRfyqfNUSQ3YkpJ2DHF-25">
          <mxGeometry y="40" width="160" height="50" as="geometry" />
        </mxCell>
        <mxCell id="viRfyqfNUSQ3YkpJ2DHF-27" value="" style="line;strokeWidth=1;fillColor=none;align=left;verticalAlign=middle;spacingTop=-1;spacingLeft=3;spacingRight=3;rotatable=0;labelPosition=right;points=[];portConstraint=eastwest;strokeColor=inherit;" vertex="1" parent="viRfyqfNUSQ3YkpJ2DHF-25">
          <mxGeometry y="90" width="160" height="8" as="geometry" />
        </mxCell>
        <mxCell id="viRfyqfNUSQ3YkpJ2DHF-28" value="+BaseLogin(int, LocalDate, string, string, string, string, string,)" style="text;strokeColor=none;fillColor=none;align=left;verticalAlign=top;spacingLeft=4;spacingRight=4;overflow=hidden;rotatable=0;points=[[0,0.5],[1,0.5]];portConstraint=eastwest;whiteSpace=wrap;html=1;" vertex="1" parent="viRfyqfNUSQ3YkpJ2DHF-25">
          <mxGeometry y="98" width="160" height="62" as="geometry" />
        </mxCell>
        <mxCell id="viRfyqfNUSQ3YkpJ2DHF-30" value="Funcionario" style="swimlane;fontStyle=1;align=center;verticalAlign=top;childLayout=stackLayout;horizontal=1;startSize=30;horizontalStack=0;resizeParent=1;resizeParentMax=0;resizeLast=0;collapsible=1;marginBottom=0;whiteSpace=wrap;html=1;" vertex="1" parent="1">
          <mxGeometry x="220" y="850" width="160" height="160" as="geometry" />
        </mxCell>
        <mxCell id="viRfyqfNUSQ3YkpJ2DHF-31" value="- contaCorrente : string&lt;br&gt;- registro : string&lt;br&gt;- cracha : string&lt;br&gt;- senha : string" style="text;strokeColor=none;fillColor=none;align=left;verticalAlign=top;spacingLeft=4;spacingRight=4;overflow=hidden;rotatable=0;points=[[0,0.5],[1,0.5]];portConstraint=eastwest;whiteSpace=wrap;html=1;" vertex="1" parent="viRfyqfNUSQ3YkpJ2DHF-30">
          <mxGeometry y="30" width="160" height="60" as="geometry" />
        </mxCell>
        <mxCell id="viRfyqfNUSQ3YkpJ2DHF-32" value="" style="line;strokeWidth=1;fillColor=none;align=left;verticalAlign=middle;spacingTop=-1;spacingLeft=3;spacingRight=3;rotatable=0;labelPosition=right;points=[];portConstraint=eastwest;strokeColor=inherit;" vertex="1" parent="viRfyqfNUSQ3YkpJ2DHF-30">
          <mxGeometry y="90" width="160" height="8" as="geometry" />
        </mxCell>
        <mxCell id="viRfyqfNUSQ3YkpJ2DHF-33" value="+Funcionario(..., string, string, string, string)" style="text;strokeColor=none;fillColor=none;align=left;verticalAlign=top;spacingLeft=4;spacingRight=4;overflow=hidden;rotatable=0;points=[[0,0.5],[1,0.5]];portConstraint=eastwest;whiteSpace=wrap;html=1;" vertex="1" parent="viRfyqfNUSQ3YkpJ2DHF-30">
          <mxGeometry y="98" width="160" height="62" as="geometry" />
        </mxCell>
        <mxCell id="viRfyqfNUSQ3YkpJ2DHF-34" value="Passageiro&lt;br&gt;" style="swimlane;fontStyle=1;align=center;verticalAlign=top;childLayout=stackLayout;horizontal=1;startSize=30;horizontalStack=0;resizeParent=1;resizeParentMax=0;resizeLast=0;collapsible=1;marginBottom=0;whiteSpace=wrap;html=1;" vertex="1" parent="1">
          <mxGeometry x="440" y="850" width="160" height="170" as="geometry" />
        </mxCell>
        <mxCell id="viRfyqfNUSQ3YkpJ2DHF-35" value="- numeroCartao : string&lt;br&gt;- documento : string&lt;br&gt;- registro : string&lt;br&gt;- usuario : string" style="text;strokeColor=none;fillColor=none;align=left;verticalAlign=top;spacingLeft=4;spacingRight=4;overflow=hidden;rotatable=0;points=[[0,0.5],[1,0.5]];portConstraint=eastwest;whiteSpace=wrap;html=1;" vertex="1" parent="viRfyqfNUSQ3YkpJ2DHF-34">
          <mxGeometry y="30" width="160" height="70" as="geometry" />
        </mxCell>
        <mxCell id="viRfyqfNUSQ3YkpJ2DHF-36" value="" style="line;strokeWidth=1;fillColor=none;align=left;verticalAlign=middle;spacingTop=-1;spacingLeft=3;spacingRight=3;rotatable=0;labelPosition=right;points=[];portConstraint=eastwest;strokeColor=inherit;" vertex="1" parent="viRfyqfNUSQ3YkpJ2DHF-34">
          <mxGeometry y="100" width="160" height="8" as="geometry" />
        </mxCell>
        <mxCell id="viRfyqfNUSQ3YkpJ2DHF-37" value="+Passageiro(..., string, string, string, string)" style="text;strokeColor=none;fillColor=none;align=left;verticalAlign=top;spacingLeft=4;spacingRight=4;overflow=hidden;rotatable=0;points=[[0,0.5],[1,0.5]];portConstraint=eastwest;whiteSpace=wrap;html=1;" vertex="1" parent="viRfyqfNUSQ3YkpJ2DHF-34">
          <mxGeometry y="108" width="160" height="62" as="geometry" />
        </mxCell>
        <mxCell id="viRfyqfNUSQ3YkpJ2DHF-40" value="" style="endArrow=classic;html=1;rounded=0;exitX=0.5;exitY=0;exitDx=0;exitDy=0;" edge="1" parent="1" source="viRfyqfNUSQ3YkpJ2DHF-9">
          <mxGeometry width="50" height="50" relative="1" as="geometry">
            <mxPoint x="350" y="280" as="sourcePoint" />
            <mxPoint x="414" y="140" as="targetPoint" />
          </mxGeometry>
        </mxCell>
        <mxCell id="viRfyqfNUSQ3YkpJ2DHF-41" value="" style="endArrow=classic;html=1;rounded=0;entryX=0.483;entryY=1;entryDx=0;entryDy=0;entryPerimeter=0;exitX=0.484;exitY=0.002;exitDx=0;exitDy=0;exitPerimeter=0;" edge="1" parent="1" source="viRfyqfNUSQ3YkpJ2DHF-17" target="viRfyqfNUSQ3YkpJ2DHF-12">
          <mxGeometry width="50" height="50" relative="1" as="geometry">
            <mxPoint x="410" y="360" as="sourcePoint" />
            <mxPoint x="409" y="320" as="targetPoint" />
          </mxGeometry>
        </mxCell>
        <mxCell id="viRfyqfNUSQ3YkpJ2DHF-47" value="" style="endArrow=classic;html=1;rounded=0;entryX=0.5;entryY=1.051;entryDx=0;entryDy=0;entryPerimeter=0;" edge="1" parent="1" target="viRfyqfNUSQ3YkpJ2DHF-28">
          <mxGeometry width="50" height="50" relative="1" as="geometry">
            <mxPoint x="410" y="800" as="sourcePoint" />
            <mxPoint x="520" y="780" as="targetPoint" />
          </mxGeometry>
        </mxCell>
        <mxCell id="viRfyqfNUSQ3YkpJ2DHF-49" value="" style="endArrow=none;html=1;rounded=0;" edge="1" parent="1">
          <mxGeometry width="50" height="50" relative="1" as="geometry">
            <mxPoint x="410" y="800" as="sourcePoint" />
            <mxPoint x="520" y="800" as="targetPoint" />
          </mxGeometry>
        </mxCell>
        <mxCell id="viRfyqfNUSQ3YkpJ2DHF-50" value="" style="endArrow=none;html=1;rounded=0;" edge="1" parent="1">
          <mxGeometry width="50" height="50" relative="1" as="geometry">
            <mxPoint x="310" y="800" as="sourcePoint" />
            <mxPoint x="410" y="800" as="targetPoint" />
          </mxGeometry>
        </mxCell>
        <mxCell id="viRfyqfNUSQ3YkpJ2DHF-52" value="" style="endArrow=none;html=1;rounded=0;exitX=0.5;exitY=0;exitDx=0;exitDy=0;" edge="1" parent="1" source="viRfyqfNUSQ3YkpJ2DHF-34">
          <mxGeometry width="50" height="50" relative="1" as="geometry">
            <mxPoint x="520" y="840" as="sourcePoint" />
            <mxPoint x="520" y="800" as="targetPoint" />
          </mxGeometry>
        </mxCell>
        <mxCell id="viRfyqfNUSQ3YkpJ2DHF-53" value="" style="endArrow=none;html=1;rounded=0;exitX=0.563;exitY=-0.017;exitDx=0;exitDy=0;exitPerimeter=0;" edge="1" parent="1" source="viRfyqfNUSQ3YkpJ2DHF-30">
          <mxGeometry width="50" height="50" relative="1" as="geometry">
            <mxPoint x="470" y="920" as="sourcePoint" />
            <mxPoint x="310" y="800" as="targetPoint" />
          </mxGeometry>
        </mxCell>
        <mxCell id="viRfyqfNUSQ3YkpJ2DHF-54" value="" style="endArrow=classic;html=1;rounded=0;entryX=0.474;entryY=1.007;entryDx=0;entryDy=0;entryPerimeter=0;exitX=0.5;exitY=0;exitDx=0;exitDy=0;" edge="1" parent="1" source="viRfyqfNUSQ3YkpJ2DHF-25" target="viRfyqfNUSQ3YkpJ2DHF-20">
          <mxGeometry width="50" height="50" relative="1" as="geometry">
            <mxPoint x="390" y="600" as="sourcePoint" />
            <mxPoint x="440" y="550" as="targetPoint" />
          </mxGeometry>
        </mxCell>
      </root>
    </mxGraphModel>
  </diagram>
</mxfile>
